# xmcd CD database file
# Generated: dl set 8 22:31:36 2003 by KSCD
# 
# Track frame offsets:
#       183
#       19858
#       39698
#       64745
#       83393
#       94700
#       116390
#       130520
#       151070
#       169360
#
# Disc length: 2437 seconds
#
# Revision: 1
# Processed by: cddbd v1.4PL0 Copyright (c) Steve Scherf et al.
# Submitted via: Kscd 1.3.3
#
DISCID=6e09830a
DTITLE=Bars - Mala idea
DYEAR=1900
DGENRE=
TTITLE0=Tu t'ho has buscat
TTITLE1=Algú t'espera
TTITLE2=Blues dels dilluns
TTITLE3=Mora't
TTITLE4=Els peixos criden
TTITLE5=Greus problemes
TTITLE6=Estrany en el mirall
TTITLE7=La nit més cega
TTITLE8=On has estat?
TTITLE9=Mai és tard
EXTD=
EXTT0=
EXTT1=
EXTT2=
EXTT3=
EXTT4=
EXTT5=
EXTT6=
EXTT7=
EXTT8=
EXTT9=
PLAYORDER=
